# xmcd CD database file
#
# Track frame offsets:
#	150
#	17694
#	34744
#	49191
#	63303
#	83039
#	100083
#	116446
#	135173
#	149559
#	168986
#	182502
#
# Disc length: 2699 seconds
#
# Revision: 0
# Processed by: cddbd v1.5.2PL0 Copyright (c) Steve Scherf et al.
# Submitted via: CDex 1.51
#
DISCID=940a890c
DTITLE=Rascal Flatts - Feels Like Today
DYEAR=1900
DGENRE=Country
TTITLE0=Where You Are
TTITLE1=Bless the Broken Road
TTITLE2=Then I Did
TTITLE3=Feels Like Today
TTITLE4=Fast Cars and Freedom
TTITLE5=When The Sand Runs Out
TTITLE6=Here's to You
TTITLE7=The Day Before You
TTITLE8=Break Away
TTITLE9=Holes
TTITLE10=Oklahoma-Texas Line
TTITLE11=Sarabeth
EXTD=
EXTT0=
EXTT1=
EXTT2=
EXTT3=
EXTT4=
EXTT5=
EXTT6=
EXTT7=
EXTT8=
EXTT9=
EXTT10=
EXTT11=
PLAYORDER=
